<?xml version="1.0" standalone="no"?>
<!DOCTYPE svg PUBLIC "-//W3C//DTD SVG 20010904//EN"
 "http://www.w3.org/TR/2001/REC-SVG-20010904/DTD/svg10.dtd">
<svg version="1.0" xmlns="http://www.w3.org/2000/svg"
 width="1024.000000pt" height="1024.000000pt" viewBox="0 0 1024.000000 1024.000000"
 preserveAspectRatio="xMidYMid meet">

<g transform="translate(0.000000,1024.000000) scale(0.100000,-0.100000)"
fill="#000000" stroke="none">
<path d="M3815 8022 c-101 -8 -266 -39 -365 -67 -449 -129 -777 -350 -1035
-697 -170 -229 -279 -478 -352 -803 l-27 -120 -3 -1400 c-3 -953 -1 -1430 7
-1495 12 -111 31 -204 72 -353 189 -694 704 -1185 1429 -1362 188 -46 226 -46
1774 -43 l1460 4 119 27 c247 56 501 160 667 273 426 288 719 738 829 1269 38
182 40 277 40 1616 0 1400 0 1405 -51 1633 -59 267 -198 573 -352 778 -319
425 -784 684 -1317 734 -67 6 -2824 12 -2895 6z m2011 -885 c330 -73 594 -214
814 -437 180 -182 307 -387 378 -610 52 -160 57 -200 57 -420 0 -192 -2 -212
-28 -311 -43 -167 -95 -279 -180 -389 l-34 -45 42 -50 c104 -124 172 -275 222
-495 24 -104 27 -134 27 -310 -1 -171 -4 -210 -27 -320 -35 -166 -57 -231
-127 -378 -78 -162 -172 -295 -291 -412 -247 -243 -563 -400 -889 -440 -54 -6
-512 -10 -1275 -10 -1330 0 -1236 -5 -1280 70 -20 35 -20 41 -20 2262 l0 2227
21 28 c11 15 40 38 65 51 l44 23 1180 -4 1180 -3 121 -27z"/>
<path d="M3868 6545 c-62 -34 -58 82 -58 -1710 0 -1756 -2 -1674 50 -1720 22
-20 36 -20 954 -20 l931 0 90 28 c241 76 450 239 566 442 99 173 130 280 136
480 6 177 -10 285 -61 411 -54 134 -180 296 -275 354 -22 14 -40 27 -40 30 0
3 21 22 48 42 92 71 202 227 254 359 42 106 58 177 64 291 13 229 -58 454
-203 644 -118 155 -322 293 -525 356 l-74 23 -915 2 c-798 2 -918 1 -942 -12z
m1755 -540 c184 -39 323 -184 357 -375 16 -91 -2 -193 -51 -292 -36 -71 -135
-165 -217 -206 l-76 -37 -638 -3 -638 -2 0 465 0 465 598 0 c480 0 610 -3 665
-15z m33 -1479 c284 -76 415 -378 283 -653 -29 -61 -140 -171 -202 -202 -104
-50 -110 -51 -764 -51 l-613 0 0 460 0 460 623 0 c494 0 633 -3 673 -14z"/>
</g>
</svg>
